<svg version="1.1" id="Layer_1" xmlns="http://www.w3.org/2000/svg" xmlns:xlink="http://www.w3.org/1999/xlink" x="0px" y="0px"
	 width="100%" viewBox="0 0 1024 1024" enable-background="new 0 0 1024 1024" xml:space="preserve">
<path fill="#000000" opacity="1.000000" stroke="none" 
	d="
M520.720947,355.325134 
	C539.249207,389.463806 557.804871,423.167999 575.905151,457.115021 
	C607.091003,515.604065 639.317444,573.533569 669.969177,632.309692 
	C677.438354,646.632263 684.934082,660.958618 692.991821,674.952576 
	C705.913391,697.393494 724.838562,711.707275 750.850952,715.813293 
	C752.576172,716.085571 755.079773,716.019592 754.859619,718.526489 
	C754.627991,721.163208 752.052185,720.352234 750.409607,720.357239 
	C727.084229,720.428589 703.758545,720.469177 680.433167,720.411621 
	C666.781311,720.377991 653.138306,720.738464 639.476013,720.491516 
	C603.579651,719.842468 577.715149,703.257690 560.842163,672.057739 
	C540.244385,633.970093 519.964600,595.710083 499.274139,557.673218 
	C475.320709,513.637634 451.117584,469.737549 426.912903,425.839264 
	C421.355255,415.759796 421.220795,406.186493 427.140747,396.096619 
	C443.995636,367.369446 460.529053,338.453674 477.196777,309.616608 
	C477.779785,308.607941 478.410370,307.622589 479.077454,306.667297 
	C484.490143,298.916046 489.984894,298.934265 494.552704,307.143433 
	C503.378662,323.005249 511.897430,339.037994 520.720947,355.325134 
z"/>
<path fill="#000000" opacity="1.000000" stroke="none" 
	d="
M329.131958,594.107788 
	C351.697571,574.475952 384.033905,576.237671 403.406799,597.897278 
	C422.106720,618.804443 420.518250,651.789124 399.889343,670.937988 
	C379.275238,690.073120 346.479889,689.201843 327.319305,669.009949 
	C306.464844,647.033020 307.115692,615.752625 329.131958,594.107788 
z"/>
</svg>